<?xml version="1.0" encoding="UTF-8"?>
<svg version="1.1" viewBox="0 0 1024 1024" width="1024" height="1024" xmlns="http://www.w3.org/2000/svg">
<path transform="translate(0)" d="m0 0h1024v1024h-1024z" fill="#7D99AB"/>
<path transform="translate(494,299)" d="m0 0h38l18 2 23 5 24 8 16 8 19 11 19 14 12 11 12 12 11 14 13 20 12 24 9 27 5 25 1 8v45l-3 19-7 25-10 24-10 18-12 17-18 22-5 5-10 9-18 13-13 8-16 8-18 7-20 6-21 4-9 1h-41l-21-3-21-5-25-9-21-11-18-12-16-13-13-12-9-10-11-15-13-21-10-21-8-24-4-20-2-20v-29l2-19 5-23 5-17 7-17 9-17 12-18 9-11 9-10 11-11 20-15 18-11 15-8 21-8 22-6 17-3z" fill="#F6F9F4"/>
<path transform="translate(510,332)" d="m0 0h13l22 2 19 4 20 7 19 9 16 10 13 11 8 7 12 12 11 15 10 17 8 17 6 18 4 19 2 16v25l-2 16-7 28-4 11-8 16-8 8-4 1-2-28-8 7-13 4h-7l-6-4-3-6-1-6v-79l1-28 34-1 3-1v-32h-32l-5-1v-30l1-8-9 1h-27v37l-21 3v32h20l1 114-3 3-16 7-4 1h-13l-6-4-3-8 1-25 4-47 1-8 2-41 4-23-1-3-31-1-5-1-1 12-1 5-6-2-11-8-11-6-9-2h-23l-17 4-16 6-11 6-9 7-12 12-8 13-5 11-4 20-1 14v14l2 18 5 16 8 15 10 13 11 10 14 8 14 5 9 2h23l13-4 13-7 11-10 3-4 4 2 3 7 7 8 11 6 9 2h13l13-4 17-7 3-2 2-10 4 5 6 7 10 7 13 4h12l10-3 6-3 7-1-3 10-3 4-3 1-4 6-8 7-9 8-17 13-19 10-20 8-23 6-17 2h-36l-18-3-19-5-17-7-21-11-19-14-13-12-10-11-12-16-9-15-6-11-6-17-3-10-4-22-1-10v-24l2-17 5-23 6-17 8-17 10-16 10-13 8-9 5-5 13-11 14-10 14-8 17-8 22-7 16-3z" fill="#2A93D2"/>
<path transform="translate(338,513)" d="m0 0h1l1 8h7l8 2h13l1-10h1l2 28 2 11 4 13 8 15 10 13 11 10 14 8 14 5 9 2h23l13-4 13-7 11-10 3-4 4 2 3 7 7 8 11 6 9 2h13l13-4 17-7 3-2 2-10 4 5 6 7 10 7 13 4h12l10-3 6-3 7-1-3 10-3 4-3 1-4 6-8 7-9 8-17 13-19 10-20 8-23 6-17 2h-36l-18-3-19-5-17-7-21-11-19-14-13-12-10-11-12-16-9-15-6-11-6-17-3-10-4-22z" fill="#11273F"/>
<path transform="translate(466,455)" d="m0 0h10l13 4 11 7 6 7 5 9v21l-2 25-3 14-5 12-9 16-7 7-10 5-12 3h-9l-14-4-10-5v-2l-4-1-6-7-7-11-4-13-2-12v-16l3-17 8-16 9-10 10-7 10-5 9-3z" fill="#1267A4"/>
<path transform="translate(661,408)" d="m0 0 4 4 10 18 8 18 6 21 4 27v25l-2 16-7 28-4 11-8 16-8 8-4 1-2-28-8 7-13 4h-7l-6-4-3-6-1-6v-79l1-28 34-1 3-1v-33h1v14l4-1 3-8-1-14-4-7z" fill="#1267A4"/>
<path transform="translate(528,418)" d="m0 0h7l11 3 5 3 11 1v2h2l1 2v32h20l1 114-3 3-16 7-4 1h-13l-6-4-3-8 1-25 4-47 1-8 2-41 4-23-1-3-28-1-2-2h2v-4z" fill="#1367A3"/>
<path transform="translate(713,582)" d="m0 0h2l-3 10-7 17v6l-3 1v4l-2 1-2 5h-2v6l-7 10-6 10-2 1-3 5-5 7-8 6-5 6-5 4h-2l-2 4-10 9-1 2h-4v4l-5 1v2l-3 2-5 1-3 3-5 1-6 6-12 3-5 3-13 3-10 5-14 3-11 2h-15l-8 1-9 1h-10l-8-2-15-2-11-2-13-4-16-5-16-8-17-9-5-5-7-6-5-3-6-7v-2l-4-2v-2l-4-1-1-5h-2l-1-7 4 2 15 12 19 12 21 11 30 10 25 5 10 1h41l21-3 20-5 25-9 16-8 12-7 17-12 11-10 10-10 9-10 12-16 13-21 8-17z" fill="#396D95"/>
<path transform="translate(408,510)" d="m0 0h1l1 13 7 2 8-2 16-1h14l16-2h8l7 2 7 6 6 9 1 11-1 3h2l-1 5-8 14-7 7-10 5-12 3h-9l-14-4-10-5v-2l-4-1-6-7-7-11-4-13-2-12v-16z" fill="#154067"/>
<path transform="translate(621,487)" d="m0 0h1l1 35 9-3 23-1 5-1h17l9 3 3 4 1-2 1-10h1v19l-6 27-6 18-8 16-8 8-4 1-2-28-8 7-13 4h-7l-6-4-3-6-1-6v-79z" fill="#164268"/>
<path transform="translate(359,423)" d="m0 0 1 2-8 17v5h2v-4h4l2 2 4 1 6 1 5 5 2 5 1 10 2 1-1 2h2l-2 7-4 9-3 17-1 14h-1l-2 7h-13l-8-2h-7-3v-24l2-17 5-23 6-17 8-17z" fill="#1368A4"/>
<path transform="translate(338,513)" d="m0 0h1l1 8h7l8 2h13l1-10h1l2 28 2 11 4 13 7 14v2l4 7-1 4h2l-1 7h-13l-7-1-5 1-6-12-2-2v-3l-5-1-6-17-3-10-4-22z" fill="#154066"/>
<path transform="translate(584,510)" d="m0 0h1l1 65-3 3-16 7-4 1h-13l-6-4-3-8 1-25 2-17 3 1v3l10-2 17 1 9 2z" fill="#164168"/>
<path transform="translate(649,617)" d="m0 0h3v2h2l-2 5-4 2-4 6-6 1v2h-2v2h-3l-1-7-5-5-1-4 5-1 11-1z" fill="#144067"/>
<path transform="translate(422,700)" d="m0 0 6 1 25 9 21 5 21 3 43 1-4 2-42 1v-1l-12-1v-1l-21-3-3-2-7-1-1-2-17-6-9-4z" fill="#2B5578"/>
<path transform="translate(528,418)" d="m0 0h7l11 3 5 3 4 1 1 3-4 20h-1v-8l2-13-29-1-2-2h2v-4z" fill="#15649D"/>
<path transform="translate(310,568)" d="m0 0 2 2 9 24 11 21 14 21 9 11 2 4-9-6-6-9v-3h-2l-8-14-5-8-8-14-7-19z" fill="#4B799C"/>
<path transform="translate(434,570)" d="m0 0 10 1 3 2v2h2l-2 5 4 3-8-1-13-6-1-3z" fill="#142B43"/>
<path transform="translate(654,611)" d="m0 0h3l-2 7-3 1v-2l-15 4h-6v-2l13-4 6-3z" fill="#19324B"/>
<path transform="translate(490,719)" d="m0 0h48l-4 2-42 1z" fill="#2F4F6A"/>
<path transform="translate(335,622)" d="m0 0 5 5 9 13 8 9-1 2-8-6-6-9v-3h-2l-5-8z" fill="#417095"/>
<path transform="translate(630,424)" d="m0 0h23l2 2-17 1h-12l-2-2z" fill="#2470A6"/>
<path transform="translate(713,582)" d="m0 0h2l-3 10-7 16-3-1 8-17z" fill="#4D7B9D"/>
<path transform="translate(477,458)" d="m0 0h6l7 3-1 3-3 1-7-2z" fill="#2993D2"/>
<path transform="translate(652,620)" d="m0 0 1 2-2 3-3 1-4 6h-2l1-7 2-2z" fill="#132C45"/>
<path transform="translate(474,716)" d="m0 0 11 1 10 1v1l-5 1h-10v-1l-6-1z" fill="#30597B"/>
<path transform="translate(498,553)" d="m0 0 3 1-7 13-2-1 1-6z" fill="#206BA0"/>
<path transform="translate(345,559)" d="m0 0h2l3 11 1 5-2 1-4-12z" fill="#25415B"/>
<path transform="translate(375,563)" d="m0 0h2l8 16-4-2-6-13z" fill="#1E3852"/>
<path transform="translate(482,576)" d="m0 0 2 1-6 4-6 2-4-1 10-4z" fill="#142F4A"/>
</svg>
